<?xml version="1.0" standalone="no"?>
<!DOCTYPE svg PUBLIC "-//W3C//DTD SVG 20010904//EN"
 "http://www.w3.org/TR/2001/REC-SVG-20010904/DTD/svg10.dtd">
<svg version="1.0" xmlns="http://www.w3.org/2000/svg"
 width="512.000000pt" height="512.000000pt" viewBox="0 0 512.000000 512.000000"
 preserveAspectRatio="xMidYMid meet">

<g transform="translate(0.000000,512.000000) scale(0.100000,-0.100000)"
fill="#000000" stroke="none">
<path d="M3196 5030 c-113 -18 -262 -59 -361 -99 -778 -318 -1145 -1201 -823
-1980 l31 -73 -901 -902 c-634 -634 -906 -912 -917 -938 -20 -49 -19 -94 4
-143 12 -26 107 -128 267 -286 253 -250 276 -269 347 -269 38 0 94 33 150 88
l57 57 188 -187 c103 -102 201 -193 219 -202 43 -21 106 -20 151 3 45 23 283
263 306 308 20 39 21 93 2 137 -8 19 -46 68 -85 109 -39 41 -71 78 -71 83 0 5
43 52 95 104 l94 94 83 -81 c98 -95 141 -114 211 -94 33 10 71 42 185 155 79
77 150 153 158 168 17 32 18 95 4 135 -6 15 -96 114 -200 218 l-190 190 273
273 272 272 82 -34 c201 -85 338 -111 583 -110 215 0 301 14 481 74 536 179
928 653 1009 1220 15 98 14 320 0 418 -47 318 -186 602 -410 836 -217 226
-477 372 -778 437 -110 23 -414 35 -516 19z m474 -155 c270 -60 489 -176 680
-361 205 -199 331 -430 391 -718 31 -144 30 -370 0 -516 -29 -136 -62 -234
-116 -342 -336 -677 -1132 -956 -1808 -636 l-108 52 -932 -932 c-513 -513
-939 -932 -947 -932 -18 0 -470 463 -470 482 0 7 420 433 934 947 l933 933
-23 42 c-118 215 -180 517 -155 764 64 633 526 1128 1146 1227 115 18 369 13
475 -10z m-1210 -3720 c0 -12 -242 -255 -254 -255 -5 0 -46 36 -90 79 -145
141 -190 137 -362 -33 -183 -182 -188 -232 -37 -387 l77 -80 -124 -124 c-69
-69 -129 -125 -135 -125 -5 0 -93 81 -195 180 l-185 179 470 470 470 471 182
-182 c101 -101 183 -187 183 -193z"/>
<path d="M3307 4340 c-323 -39 -599 -277 -687 -590 -133 -476 190 -955 687
-1021 331 -44 667 138 821 446 62 124 77 195 77 360 0 172 -16 240 -87 377
-151 292 -484 468 -811 428z m258 -155 c235 -60 426 -249 485 -481 39 -151 20
-326 -51 -465 -82 -163 -216 -278 -394 -336 -67 -22 -99 -26 -195 -27 -194 -1
-335 57 -471 193 -205 205 -255 499 -130 756 88 181 231 300 426 356 78 23
249 25 330 4z"/>
</g>
</svg>
