<?xml version="1.0"?>
<svg xmlns="http://www.w3.org/2000/svg" xmlns:xlink="http://www.w3.org/1999/xlink" version="1.1" id="Layer_1" x="0px" y="0px" width="100%" viewBox="0 0 540 598" enable-background="new 0 0 540 598" xml:space="preserve" style="background-color:transparent;">
<path fill="none" opacity="1.000000" stroke="none" d=" M273.000000,0.999996   C362.254791,1.000000 451.509613,1.000000 541.000000,1.000000   C541.000000,77.354065 541.000000,153.708374 540.663940,230.456848   C535.621582,226.802505 530.894043,222.778412 526.213806,218.700073   C518.060242,211.595062 509.989777,204.393768 501.785828,197.347687   C490.881500,187.982330 479.843903,178.772186 468.937317,169.409485   C460.857513,162.473465 452.946259,155.341156 444.868225,148.403046   C433.838226,138.929535 422.685913,129.598404 411.653046,120.128197   C403.698792,113.300545 395.906647,106.283897 387.947205,99.462410   C377.033081,90.108696 365.987091,80.908806 355.077362,71.550011   C346.995026,64.616661 339.095978,57.469654 331.014130,50.535744   C320.105164,41.176311 309.078613,31.954021 298.141296,22.627403   C289.729858,15.454674 281.378235,8.211723 273.000000,0.999996  z"/>
<path fill="#010000" opacity="1.000000" stroke="none" d=" M272.571533,0.999996   C281.378235,8.211723 289.729858,15.454674 298.141296,22.627403   C309.078613,31.954021 320.105164,41.176311 331.014130,50.535744   C339.095978,57.469654 346.995026,64.616661 355.077362,71.550011   C365.987091,80.908806 377.033081,90.108696 387.947205,99.462410   C395.906647,106.283897 403.698792,113.300545 411.653046,120.128197   C422.685913,129.598404 433.838226,138.929535 444.868225,148.403046   C452.946259,155.341156 460.857513,162.473465 468.937317,169.409485   C479.843903,178.772186 490.881500,187.982330 501.785828,197.347687   C509.989777,204.393768 518.060242,211.595062 526.213806,218.700073   C530.894043,222.778412 535.621582,226.802505 540.663940,230.925507   C541.000000,262.354218 541.000000,293.708466 540.632080,325.633484   C535.731567,330.008453 533.218933,327.807922 528.862610,324.355652   C522.059875,318.964630 515.309570,313.507355 508.000549,307.648102   C508.000549,310.381378 508.000519,312.187714 508.000519,313.994019   C508.000549,406.747772 508.014587,499.501495 507.916840,592.255188   C507.914459,594.504089 506.666809,596.751770 506.000000,599.000000   C350.645782,599.000000 195.291550,599.000000 39.343651,598.623047   C37.833138,595.557312 36.118778,592.869751 36.114803,590.179688   C35.976509,496.575989 35.999432,402.972076 35.999432,309.368164   C35.999432,307.676697 35.999432,305.985199 35.999432,303.763733   C27.251678,311.364410 19.034443,318.148590 11.265162,325.411865   C7.639588,328.801300 4.595928,328.811829 1.000000,326.000000   C1.000000,309.312439 1.000000,292.624878 1.408645,275.301147   C1.878002,262.171906 1.765806,249.673782 2.129319,237.189514   C2.213034,234.314468 3.139635,230.725739 5.028567,228.768646   C13.423612,220.070663 22.236729,211.768707 31.067760,203.504227   C33.336811,201.380737 34.067902,199.208649 34.062901,196.171326   C33.975109,142.843781 33.999065,89.516029 33.999916,36.188332   C34.000015,29.837034 35.770340,28.013538 42.084988,28.005980   C58.416573,27.986435 74.748199,27.996660 91.079803,28.000696   C98.309448,28.002483 99.998932,29.701244 99.999451,36.970657   C100.001923,71.633659 100.000557,106.296669 100.000557,140.959671   C100.000557,142.515930 100.000565,144.072189 100.000565,146.282318   C102.575600,144.202759 104.505753,142.758545 106.307945,141.169205   C115.175835,133.348694 123.935913,125.404358 132.874405,117.665863   C144.002670,108.031578 155.333420,98.631073 166.454346,88.988472   C175.638504,81.025169 184.587860,72.791542 193.743698,64.794991   C205.956635,54.128433 218.242783,43.545197 230.549240,32.986488   C236.621780,27.776342 242.906097,22.810572 248.919907,17.535084   C255.058075,12.150475 260.982178,6.521815 267.000000,0.999997   C268.714355,1.000000 270.428711,1.000000 272.571533,0.999996  M498.709473,588.480042   C498.805664,587.326538 498.986084,586.172974 498.986084,585.019470   C498.986603,488.682739 498.973083,392.346039 499.092621,295.270172   C501.530487,291.852417 504.364716,292.429626 507.166473,294.636292   C511.044830,297.690857 514.728760,300.995392 518.648438,303.993439   C522.601440,307.016968 526.740906,309.796814 531.548218,312.336334   C531.698547,311.533600 531.979370,310.730988 531.980164,309.928101   C532.003723,286.486511 532.013794,263.044891 531.959229,239.603409   C531.956360,238.377136 531.366272,237.152237 530.730713,235.341217   C520.923462,226.858398 511.117920,218.373566 501.308472,209.893265   C485.978485,196.640472 470.668610,183.364243 455.308441,170.146576   C437.043579,154.429428 418.722504,138.777618 400.448303,123.071335   C385.325012,110.073219 370.250519,97.018311 355.125000,84.022758   C337.100128,68.536110 319.043091,53.086834 301.001465,37.619633   C290.916138,28.973406 280.833740,20.323698 270.411072,11.384870   C258.532349,21.540653 246.761459,31.469765 235.143188,41.574348   C222.971466,52.160259 211.007431,62.984852 198.844620,73.581146   C171.217545,97.649933 143.522919,121.641174 115.858971,145.667633   C110.480797,150.338638 105.167068,155.085342 99.730408,159.687012   C95.721748,163.080002 93.519363,162.829178 90.989960,158.428894   C90.909081,158.254623 90.828194,158.080338 90.727455,156.981400   C90.730759,119.521423 90.734612,82.061455 90.734795,44.601482   C90.734795,43.436520 91.123230,41.989010 90.580620,41.170212   C89.677917,39.808018 88.176155,37.881008 86.910194,37.868565   C72.603569,37.727921 58.293808,37.906799 43.339207,38.540810   C43.226711,40.354046 43.017349,42.167221 43.016155,43.980530   C42.995979,74.564491 42.982037,105.148483 43.008213,135.732437   C43.027702,158.501633 43.106556,181.270798 42.816864,204.635590   C42.274193,205.454819 41.856007,206.400894 41.170010,207.074066   C32.136971,215.938583 22.948393,224.649551 14.107011,233.700073   C12.395304,235.452286 11.182071,238.475876 11.130228,240.942261   C10.675242,262.587524 10.535835,284.239410 10.073632,306.692383   C10.351178,308.479034 10.628724,310.265656 11.619319,312.108673   C12.416646,311.524445 13.262881,310.996094 14.003809,310.347443   C22.008684,303.339417 29.870459,296.160339 38.045818,289.357910   C41.853142,286.189941 45.042095,287.754486 45.572067,292.592987   C45.770760,294.406891 45.711010,296.252869 45.711121,298.084229   C45.716709,392.904205 45.713898,487.724213 45.729675,582.544189   C45.730034,584.698669 45.933430,586.853149 46.557201,589.669250   C47.875813,589.778931 49.194420,589.984497 50.513039,589.984619   C198.145416,589.999084 345.777771,590.001221 493.410156,589.958984   C494.961121,589.958557 496.511932,589.365723 498.081268,589.061157   C498.081268,589.061157 498.101685,589.069092 498.709473,588.480042  z"/>
<path fill="none" opacity="1.000000" stroke="none" d=" M266.531342,0.999997   C260.982178,6.521815 255.058075,12.150475 248.919907,17.535084   C242.906097,22.810572 236.621780,27.776342 230.549240,32.986488   C218.242783,43.545197 205.956635,54.128433 193.743698,64.794991   C184.587860,72.791542 175.638504,81.025169 166.454346,88.988472   C155.333420,98.631073 144.002670,108.031578 132.874405,117.665863   C123.935913,125.404358 115.175835,133.348694 106.307945,141.169205   C104.505753,142.758545 102.575600,144.202759 100.000565,146.282318   C100.000565,144.072189 100.000557,142.515930 100.000557,140.959671   C100.000557,106.296669 100.001923,71.633659 99.999451,36.970657   C99.998932,29.701244 98.309448,28.002483 91.079803,28.000696   C74.748199,27.996660 58.416573,27.986435 42.084988,28.005980   C35.770340,28.013538 34.000015,29.837034 33.999916,36.188332   C33.999065,89.516029 33.975109,142.843781 34.062901,196.171326   C34.067902,199.208649 33.336811,201.380737 31.067760,203.504227   C22.236729,211.768707 13.423612,220.070663 5.028567,228.768646   C3.139635,230.725739 2.213034,234.314468 2.129319,237.189514   C1.765806,249.673782 1.878002,262.171906 1.408645,274.832520   C1.000000,183.740692 1.000000,92.481384 1.000000,1.000000   C89.354103,1.000000 177.708389,1.000000 266.531342,0.999997  z"/>
<path fill="none" opacity="1.000000" stroke="none" d=" M1.000000,326.468658   C4.595928,328.811829 7.639588,328.801300 11.265162,325.411865   C19.034443,318.148590 27.251678,311.364410 35.999432,303.763733   C35.999432,305.985199 35.999432,307.676697 35.999432,309.368164   C35.999432,402.972076 35.976509,496.575989 36.114803,590.179688   C36.118778,592.869751 37.833138,595.557312 38.874992,598.623047   C26.351173,599.000000 13.702348,599.000000 1.000000,599.000000   C1.000000,508.312439 1.000000,417.624878 1.000000,326.468658  z"/>
<path fill="none" opacity="1.000000" stroke="none" d=" M506.468628,599.000000   C506.666809,596.751770 507.914459,594.504089 507.916840,592.255188   C508.014587,499.501495 508.000549,406.747772 508.000519,313.994019   C508.000519,312.187714 508.000549,310.381378 508.000549,307.648102   C515.309570,313.507355 522.059875,318.964630 528.862610,324.355652   C533.218933,327.807922 535.731567,330.008453 540.632080,326.102112   C541.000000,417.000000 541.000000,508.000031 541.000000,599.000000   C529.571777,599.000000 518.254517,599.000000 506.468628,599.000000  z"/>
<path fill="#BD020B" opacity="1.000000" stroke="none" d=" M90.990944,159.005295   C93.519363,162.829178 95.721748,163.080002 99.730408,159.687012   C105.167068,155.085342 110.480797,150.338638 115.858971,145.667633   C143.522919,121.641174 171.217545,97.649933 198.844620,73.581146   C211.007431,62.984852 222.971466,52.160259 235.143188,41.574348   C246.761459,31.469765 258.532349,21.540653 270.411072,11.384870   C280.833740,20.323698 290.916138,28.973406 301.001465,37.619633   C319.043091,53.086834 337.100128,68.536110 355.125000,84.022758   C370.250519,97.018311 385.325012,110.073219 400.448303,123.071335   C418.722504,138.777618 437.043579,154.429428 455.308441,170.146576   C470.668610,183.364243 485.978485,196.640472 501.308472,209.893265   C511.117920,218.373566 520.923462,226.858398 530.871338,236.108307   C530.940918,262.144745 530.869812,287.414093 530.798645,312.683441   C526.740906,309.796814 522.601440,307.016968 518.648438,303.993439   C514.728760,300.995392 511.044830,297.690857 507.166473,294.636292   C504.364716,292.429626 501.530487,291.852417 498.741608,295.941528   C498.260376,298.589172 498.016968,300.565399 498.016388,302.541718   C497.996613,368.600098 497.989899,434.658478 498.004639,500.716858   C498.011200,530.167603 498.067780,559.618347 498.101685,589.069092   C498.101685,589.069092 498.081268,589.061157 497.598328,589.038757   C346.757629,589.013428 196.399872,589.010498 46.042118,589.007629   C45.933430,586.853149 45.730034,584.698669 45.729675,582.544189   C45.713898,487.724213 45.716709,392.904205 45.711121,298.084229   C45.711010,296.252869 45.770760,294.406891 45.572067,292.592987   C45.042095,287.754486 41.853142,286.189941 38.045818,289.357910   C29.870459,296.160339 22.008684,303.339417 14.003809,310.347443   C13.262881,310.996094 12.416646,311.524445 11.277403,311.676453   C10.724630,309.459259 10.513775,307.674316 10.302917,305.889343   C10.535835,284.239410 10.675242,262.587524 11.130228,240.942261   C11.182071,238.475876 12.395304,235.452286 14.107011,233.700073   C22.948393,224.649551 32.136971,215.938583 41.170010,207.074066   C41.856007,206.400894 42.274193,205.454819 43.253555,204.018173   C43.793423,201.914505 43.986496,200.428284 43.986786,198.942017   C43.997307,145.294678 43.989853,91.647346 43.984886,38.000008   C58.293808,37.906799 72.603569,37.727921 86.910194,37.868565   C88.176155,37.881008 89.677917,39.808018 90.580620,41.170212   C91.123230,41.989010 90.734795,43.436520 90.734795,44.601482   C90.734612,82.061455 90.730759,119.521423 90.616135,157.579773   C90.666855,158.453857 90.828903,158.729584 90.990944,159.005295  z"/>
<path fill="#961F0F" opacity="1.000000" stroke="none" d=" M46.299660,589.338440   C196.399872,589.010498 346.757629,589.013428 497.589111,589.032898   C496.511932,589.365723 494.961121,589.958557 493.410156,589.958984   C345.777771,590.001221 198.145416,589.999084 50.513039,589.984619   C49.194420,589.984497 47.875813,589.778931 46.299660,589.338440  z"/>
<path fill="#7D170C" opacity="1.000000" stroke="none" d=" M498.405579,588.774536   C498.067780,559.618347 498.011200,530.167603 498.004639,500.716858   C497.989899,434.658478 497.996613,368.600098 498.016388,302.541718   C498.016968,300.565399 498.260376,298.589172 498.675598,296.311096   C498.973083,392.346039 498.986603,488.682739 498.986084,585.019470   C498.986084,586.172974 498.805664,587.326538 498.405579,588.774536  z"/>
<path fill="#79150B" opacity="1.000000" stroke="none" d=" M43.662048,38.270409   C43.989853,91.647346 43.997307,145.294678 43.986786,198.942017   C43.986496,200.428284 43.793423,201.914505 43.424606,203.720367   C43.106556,181.270798 43.027702,158.501633 43.008213,135.732437   C42.982037,105.148483 42.995979,74.564491 43.016155,43.980530   C43.017349,42.167221 43.226711,40.354046 43.662048,38.270409  z"/>
<path fill="#95200F" opacity="1.000000" stroke="none" d=" M531.173462,312.509888   C530.869812,287.414093 530.940918,262.144745 531.030823,236.401031   C531.366272,237.152237 531.956360,238.377136 531.959229,239.603409   C532.013794,263.044891 532.003723,286.486511 531.980164,309.928101   C531.979370,310.730988 531.698547,311.533600 531.173462,312.509888  z"/>
<path fill="#610406" opacity="1.000000" stroke="none" d=" M10.188275,306.290863   C10.513775,307.674316 10.724630,309.459259 10.920878,311.648254   C10.628724,310.265656 10.351178,308.479034 10.188275,306.290863  z"/>
<path fill="#680A08" opacity="1.000000" stroke="none" d=" M90.990448,158.717102   C90.828903,158.729584 90.666855,158.453857 90.626060,158.042099   C90.828194,158.080338 90.909081,158.254623 90.990448,158.717102  z"/>
</svg>
