<?xml version="1.0"?>
<svg xmlns="http://www.w3.org/2000/svg" xmlns:xlink="http://www.w3.org/1999/xlink" version="1.1" id="Layer_1" x="0px" y="0px" width="100%" viewBox="0 0 540 598" enable-background="new 0 0 540 598" xml:space="preserve" style="background-color:transparent;">
<path fill="none" opacity="1.000000" stroke="none" d=" M273.000000,1.000000   C362.254791,1.000000 451.509613,1.000000 541.000000,1.000000   C541.000000,77.354065 541.000000,153.708374 540.663818,230.456909   C535.621460,226.802597 530.894043,222.778488 526.213745,218.700150   C518.060120,211.595139 509.989655,204.393860 501.785706,197.347748   C490.881378,187.982391 479.843781,178.772247 468.937164,169.409561   C460.857391,162.473511 452.946075,155.341248 444.868042,148.403137   C433.837982,138.929626 422.685791,129.598434 411.652924,120.128189   C403.698669,113.300507 395.906525,106.283913 387.947052,99.462425   C377.032959,90.108711 365.986938,80.908859 355.077209,71.550072   C346.994873,64.616722 339.095825,57.469700 331.013947,50.535789   C320.104950,41.176346 309.078430,31.954079 298.141113,22.627453   C289.729675,15.454717 281.378174,8.211740 273.000000,1.000000  z"/>
<path fill="#000100" opacity="1.000000" stroke="none" d=" M272.571533,1.000000   C281.378174,8.211740 289.729675,15.454717 298.141113,22.627453   C309.078430,31.954079 320.104950,41.176346 331.013947,50.535789   C339.095825,57.469700 346.994873,64.616722 355.077209,71.550072   C365.986938,80.908859 377.032959,90.108711 387.947052,99.462425   C395.906525,106.283913 403.698669,113.300507 411.652924,120.128189   C422.685791,129.598434 433.837982,138.929626 444.868042,148.403137   C452.946075,155.341248 460.857391,162.473511 468.937164,169.409561   C479.843781,178.772247 490.881378,187.982391 501.785706,197.347748   C509.989655,204.393860 518.060120,211.595139 526.213745,218.700150   C530.894043,222.778488 535.621460,226.802597 540.663818,230.925568   C541.000000,262.354218 541.000000,293.708466 540.632080,325.633392   C535.732239,330.008087 533.219238,327.808105 528.862610,324.355530   C522.059814,318.964508 515.309509,313.507172 508.000397,307.647797   C508.000397,310.380890 508.000366,312.187164 508.000366,313.993439   C508.000397,406.747345 508.014435,499.501282 507.916687,592.255127   C507.914307,594.504028 506.666748,596.751709 506.000000,599.000000   C350.645782,599.000000 195.291550,599.000000 39.343719,598.622986   C37.833275,595.557251 36.118916,592.869751 36.114941,590.179688   C35.976646,496.575836 35.999573,402.971741 35.999573,309.367676   C35.999573,307.676239 35.999573,305.984772 35.999573,303.763397   C27.251741,311.364166 19.034462,318.148315 11.265151,325.411652   C7.639656,328.801025 4.595991,328.811768 1.000000,326.000000   C1.000000,309.312439 1.000000,292.624878 1.408681,275.301208   C1.878097,262.171906 1.765914,249.673660 2.129476,237.189255   C2.213200,234.314240 3.139983,230.725616 5.028934,228.768494   C13.423982,220.070541 22.237028,211.768494 31.068106,203.504059   C33.337292,201.380493 34.068001,199.208237 34.063004,196.171082   C33.975266,142.843521 33.999207,89.515747 34.000057,36.188026   C34.000156,29.837049 35.770592,28.013660 42.085503,28.006111   C58.417095,27.986589 74.748726,27.996798 91.080338,28.000839   C98.309593,28.002628 99.998802,29.701365 99.999321,36.971401   C100.001793,71.634415 100.000427,106.297432 100.000427,140.960449   C100.000427,142.516617 100.000427,144.072769 100.000427,146.282593   C102.575714,144.202820 104.505905,142.758545 106.308128,141.169174   C115.176025,133.348663 123.936111,125.404350 132.874603,117.665840   C144.002853,108.031563 155.333603,98.631065 166.454514,88.988472   C175.638687,81.025169 184.588028,72.791534 193.743866,64.794975   C205.956787,54.128426 218.242950,43.545219 230.549393,32.986511   C236.621933,27.776365 242.906281,22.810625 248.920074,17.535135   C255.058228,12.150542 260.982239,6.521841 267.000000,1.000003   C268.714355,1.000000 270.428711,1.000000 272.571533,1.000000  M46.583179,589.643250   C48.065872,589.761963 49.548553,589.984558 51.031261,589.984741   C198.335480,590.000488 345.639709,590.002686 492.943939,589.960205   C494.677979,589.959717 496.411804,589.368103 498.678223,588.408020   C498.766205,586.418091 498.930817,584.428223 498.931122,582.438293   C498.944000,499.123322 498.946747,415.808319 498.936920,332.493347   C498.935547,320.997162 498.862640,309.500977 498.918518,297.503357   C498.904053,297.333832 498.889557,297.164276 498.985901,296.231995   C501.145905,292.527771 503.667694,291.875183 506.839508,294.378876   C510.721008,297.442810 514.428528,300.730042 518.351807,303.737244   C522.472534,306.895782 526.759521,309.837402 531.666504,312.415253   C531.776001,311.765564 531.980713,311.115936 531.981201,310.466187   C531.999023,286.850067 532.012451,263.233887 531.957703,239.617874   C531.954834,238.392044 531.348450,237.167618 530.724243,235.346100   C529.541687,234.173599 528.427856,232.920883 527.166321,231.840622   C506.855865,214.448517 486.490753,197.120071 466.212433,179.690659   C448.451324,164.424805 430.832397,148.993439 413.061523,133.739059   C388.354401,112.530754 363.532410,91.456276 338.818726,70.255547   C316.877075,51.432781 294.991882,32.543858 273.158051,13.596199   C271.045715,11.763093 269.727905,11.880991 267.689209,13.661985   C253.307327,26.225933 238.798203,38.644054 224.380569,51.167301   C210.587158,63.148350 196.882965,75.232124 183.089127,87.212677   C166.403748,101.704674 149.642944,116.109848 132.957733,130.602051   C121.798920,140.294205 110.783211,150.152939 99.517159,159.717682   C97.988739,161.015289 94.985153,161.996353 93.380646,161.349060   C92.013069,160.797363 91.538742,157.731445 90.939117,155.698196   C90.622566,154.624786 90.881912,153.381409 90.881905,152.214783   C90.881828,116.382637 90.882362,80.550484 90.881348,44.718338   C90.881149,37.859215 90.878319,37.856728 84.270813,37.855591   C72.771194,37.853615 61.271576,37.853718 49.771957,37.855545   C43.071934,37.856613 43.068832,37.858887 43.068710,44.628181   C43.067783,96.293144 43.101635,147.958191 42.970089,199.622818   C42.963459,202.228943 42.305283,205.577988 40.633640,207.310684   C31.850819,216.414322 22.579090,225.044312 13.653461,234.014236   C12.296700,235.377731 11.146903,237.645157 11.110125,239.518234   C10.642710,263.323181 10.396454,287.132477 10.178093,311.434204   C10.426869,311.643219 10.675646,311.852203 11.632771,312.036774   C15.905281,308.371185 20.181564,304.709961 24.449282,301.038757   C29.106878,297.032196 33.585167,292.790894 38.467167,289.080231   C41.992908,286.400391 44.748875,287.893463 45.144825,292.294861   C45.486629,296.094360 45.824478,299.911957 45.826000,303.721710   C45.863178,396.654877 45.853737,489.588013 45.863071,582.521179   C45.863289,584.682434 45.983170,586.843628 46.583179,589.643250  z"/>
<path fill="none" opacity="1.000000" stroke="none" d=" M266.531342,1.000003   C260.982239,6.521841 255.058228,12.150542 248.920074,17.535135   C242.906281,22.810625 236.621933,27.776365 230.549393,32.986511   C218.242950,43.545219 205.956787,54.128426 193.743866,64.794975   C184.588028,72.791534 175.638687,81.025169 166.454514,88.988472   C155.333603,98.631065 144.002853,108.031563 132.874603,117.665840   C123.936111,125.404350 115.176025,133.348663 106.308128,141.169174   C104.505905,142.758545 102.575714,144.202820 100.000427,146.282593   C100.000427,144.072769 100.000427,142.516617 100.000427,140.960449   C100.000427,106.297432 100.001793,71.634415 99.999321,36.971401   C99.998802,29.701365 98.309593,28.002628 91.080338,28.000839   C74.748726,27.996798 58.417095,27.986589 42.085503,28.006111   C35.770592,28.013660 34.000156,29.837049 34.000057,36.188026   C33.999207,89.515747 33.975266,142.843521 34.063004,196.171082   C34.068001,199.208237 33.337292,201.380493 31.068106,203.504059   C22.237028,211.768494 13.423982,220.070541 5.028934,228.768494   C3.139983,230.725616 2.213200,234.314240 2.129476,237.189255   C1.765914,249.673660 1.878097,262.171906 1.408681,274.832581   C1.000000,183.740692 1.000000,92.481384 1.000000,1.000000   C89.354103,1.000000 177.708389,1.000000 266.531342,1.000003  z"/>
<path fill="none" opacity="1.000000" stroke="none" d=" M1.000000,326.468658   C4.595991,328.811768 7.639656,328.801025 11.265151,325.411652   C19.034462,318.148315 27.251741,311.364166 35.999573,303.763397   C35.999573,305.984772 35.999573,307.676239 35.999573,309.367676   C35.999573,402.971741 35.976646,496.575836 36.114941,590.179688   C36.118916,592.869751 37.833275,595.557251 38.875061,598.622986   C26.351173,599.000000 13.702348,599.000000 1.000000,599.000000   C1.000000,508.312439 1.000000,417.624878 1.000000,326.468658  z"/>
<path fill="none" opacity="1.000000" stroke="none" d=" M506.468628,599.000000   C506.666748,596.751709 507.914307,594.504028 507.916687,592.255127   C508.014435,499.501282 508.000397,406.747345 508.000366,313.993439   C508.000366,312.187164 508.000397,310.380890 508.000397,307.647797   C515.309509,313.507172 522.059814,318.964508 528.862610,324.355530   C533.219238,327.808105 535.732239,330.008087 540.632080,326.102051   C541.000000,417.000000 541.000000,508.000031 541.000000,599.000000   C529.571777,599.000000 518.254517,599.000000 506.468628,599.000000  z"/>
<path fill="#017129" opacity="1.000000" stroke="none" d=" M498.822876,298.004791   C498.862640,309.500977 498.935547,320.997162 498.936920,332.493347   C498.946747,415.808319 498.944000,499.123322 498.931122,582.438293   C498.930817,584.428223 498.766205,586.418091 497.929138,588.712402   C346.802460,589.012817 196.424850,589.008850 46.047234,589.004883   C45.983170,586.843628 45.863289,584.682434 45.863071,582.521179   C45.853737,489.588013 45.863178,396.654877 45.826000,303.721710   C45.824478,299.911957 45.486629,296.094360 45.144825,292.294861   C44.748875,287.893463 41.992908,286.400391 38.467167,289.080231   C33.585167,292.790894 29.106878,297.032196 24.449282,301.038757   C20.181564,304.709961 15.905281,308.371185 11.204659,311.819763   C10.613583,311.315430 10.386031,311.094757 10.093892,310.940643   C10.396454,287.132477 10.642710,263.323181 11.110125,239.518234   C11.146903,237.645157 12.296700,235.377731 13.653461,234.014236   C22.579090,225.044312 31.850819,216.414322 40.633640,207.310684   C42.305283,205.577988 42.963459,202.228943 42.970089,199.622818   C43.101635,147.958191 43.067783,96.293144 43.068710,44.628181   C43.068832,37.858887 43.071934,37.856613 49.771957,37.855545   C61.271576,37.853718 72.771194,37.853615 84.270813,37.855591   C90.878319,37.856728 90.881149,37.859215 90.881348,44.718338   C90.882362,80.550484 90.881828,116.382637 90.881905,152.214783   C90.881912,153.381409 90.622566,154.624786 90.939117,155.698196   C91.538742,157.731445 92.013069,160.797363 93.380646,161.349060   C94.985153,161.996353 97.988739,161.015289 99.517159,159.717682   C110.783211,150.152939 121.798920,140.294205 132.957733,130.602051   C149.642944,116.109848 166.403748,101.704674 183.089127,87.212677   C196.882965,75.232124 210.587158,63.148350 224.380569,51.167301   C238.798203,38.644054 253.307327,26.225933 267.689209,13.661985   C269.727905,11.880991 271.045715,11.763093 273.158051,13.596199   C294.991882,32.543858 316.877075,51.432781 338.818726,70.255547   C363.532410,91.456276 388.354401,112.530754 413.061523,133.739059   C430.832397,148.993439 448.451324,164.424805 466.212433,179.690659   C486.490753,197.120071 506.855865,214.448517 527.166321,231.840622   C528.427856,232.920883 529.541687,234.173599 530.865845,236.118454   C530.996277,262.218475 530.985107,287.546173 530.973877,312.873840   C526.759521,309.837402 522.472534,306.895782 518.351807,303.737244   C514.428528,300.730042 510.721008,297.442810 506.839508,294.378876   C503.667694,291.875183 501.145905,292.527771 498.784973,296.705811   C498.528290,297.279694 498.400665,297.417664 498.429840,297.472870   C498.531586,297.665619 498.687531,297.829773 498.822876,298.004791  z"/>
<path fill="#0F6F25" opacity="1.000000" stroke="none" d=" M46.315208,589.324097   C196.424850,589.008850 346.802460,589.012817 497.662903,589.034546   C496.411804,589.368103 494.677979,589.959717 492.943939,589.960205   C345.639709,590.002686 198.335480,590.000488 51.031261,589.984741   C49.548553,589.984558 48.065872,589.761963 46.315208,589.324097  z"/>
<path fill="#0F6F25" opacity="1.000000" stroke="none" d=" M531.320190,312.644531   C530.985107,287.546173 530.996277,262.218475 531.015259,236.416672   C531.348450,237.167618 531.954834,238.392044 531.957703,239.617874   C532.012451,263.233887 531.999023,286.850067 531.981201,310.466187   C531.980713,311.115936 531.776001,311.765564 531.320190,312.644531  z"/>
<path fill="#0B5B1E" opacity="1.000000" stroke="none" d=" M498.870667,297.754089   C498.687531,297.829773 498.531586,297.665619 498.429840,297.472870   C498.400665,297.417664 498.528290,297.279694 498.729523,297.087189   C498.889557,297.164276 498.904053,297.333832 498.870667,297.754089  z"/>
<path fill="#023B15" opacity="1.000000" stroke="none" d=" M10.135992,311.187439   C10.386031,311.094757 10.613583,311.315430 10.850483,311.831970   C10.675646,311.852203 10.426869,311.643219 10.135992,311.187439  z"/>
</svg>
